<?xml version="1.0" encoding="UTF-8"?>
<svg id="Layer_1" xmlns="http://www.w3.org/2000/svg" aria-hidden="true" role="img" version="1.1" viewBox="0 0 400 120" width="200" height="60">
  <!-- Generator: Adobe Illustrator 29.1.0, SVG Export Plug-In . SVG Version: 2.1.0 Build 142)  -->
  <defs>
    <style>
      .st0 {
        fill: #231f20;
      }

      .st1, .st2, .st3 {
        isolation: isolate;
      }

      .st2 {
        fill: #1f2937;
      }

      .st2, .st3 {
        font-family: Arial-BoldMT, Arial;
        font-size: 48px;
        font-weight: 700;
      }

      .st3, .st4 {
        fill: #4f46e5;
      }
    </style>
  </defs>
  <path class="st4" d="M70,20c-16.5,0-30,13.5-30,30s30,50,30,50c0,0,30-27.5,30-50s-13.5-30-30-30ZM70,60c-5.5,0-10-4.5-10-10s4.5-10,10-10,10,4.5,10,10-4.5,10-10,10Z"/>
  <path class="st0" d="M64.7,54.3l-4.8-4.7-2.9,2.8,7.7,7.6,15.3-15.2-2.9-2.8-12.5,12.3Z"/>
  <g class="st1">
    <text class="st2" transform="translate(103.5 70.6)"><tspan x="0" y="0">Plan </tspan></text>
    <text class="st3" transform="translate(218.2 70.6)"><tspan x="0" y="0">venture</tspan></text>
  </g>
</svg>